<svg width="48" height="64" viewBox="0 0 48 64" fill="none" xmlns="http://www.w3.org/2000/svg">
<path d="M0 0H48V40C48 53.2548 37.2548 64 24 64V64C10.7452 64 0 53.2548 0 40V0Z" fill="#00C88C"/>
<path fill-rule="evenodd" clip-rule="evenodd" d="M33.5394 31.8661C34.3272 31.8661 34.9658 31.2245 34.9658 30.433C34.9658 29.6416 34.3272 29 33.5394 29C32.7517 29 32.1131 29.6416 32.1131 30.433C32.1131 31.2245 32.7517 31.8661 33.5394 31.8661Z" fill="white"/>
<path fill-rule="evenodd" clip-rule="evenodd" d="M13 35.8671C13 35.4696 13.1369 35.1334 13.4108 34.8582C13.6846 34.5831 14.0194 34.4455 14.4149 34.4455C14.8105 34.4455 15.1452 34.5831 15.4191 34.8582C15.6929 35.1334 15.8299 35.4696 15.8299 35.8671V39.9484C15.8299 41.0795 16.0429 42.1419 16.4689 43.1354C16.8949 44.129 17.4806 45.0003 18.2261 45.7493C18.9716 46.4983 19.8389 47.0868 20.8278 47.5148C21.8167 47.9428 22.8741 48.1568 24 48.1568C25.1259 48.1568 26.1833 47.9428 27.1722 47.5148C28.1611 47.0868 29.0284 46.4983 29.7739 45.7493C30.5194 45.0003 31.1051 44.129 31.5311 43.1354C31.9571 42.1419 32.1701 41.0795 32.1701 39.9484V35.8671C32.1701 35.4696 32.3071 35.1334 32.5809 34.8582C32.8548 34.5831 33.1895 34.4455 33.5851 34.4455C33.9806 34.4455 34.3154 34.5831 34.5892 34.8582C34.8631 35.1334 35 35.4696 35 35.8671V39.9484C35 41.4769 34.7109 42.9138 34.1328 44.2589C33.5546 45.6041 32.7711 46.7734 31.7822 47.767C30.7932 48.7606 29.6293 49.5478 28.2905 50.1287C26.9516 50.7095 25.5214 51 24 51C22.4786 51 21.0484 50.7095 19.7095 50.1287C18.3707 49.5478 17.2068 48.7606 16.2178 47.767C15.2289 46.7734 14.4454 45.6041 13.8672 44.2589C13.2891 42.9138 13 41.4769 13 39.9484V35.8671Z" fill="white"/>
<path fill-rule="evenodd" clip-rule="evenodd" d="M14.4263 31.8661C15.2141 31.8661 15.8527 31.2245 15.8527 30.433C15.8527 29.6416 15.2141 29 14.4263 29C13.6386 29 13 29.6416 13 30.433C13 31.2245 13.6386 31.8661 14.4263 31.8661Z" fill="white"/>
</svg>
